<?xml version="1.0" encoding="UTF-8"?>
<svg width="31px" height="27px" viewBox="0 0 31 27" version="1.1" xmlns="http://www.w3.org/2000/svg" xmlns:xlink="http://www.w3.org/1999/xlink">
    <title>7D140EB1-41DF-4C65-AB90-A439B465E7C0</title>
    <g id="Home" stroke="none" stroke-width="1" fill="none" fill-rule="evenodd" opacity="0.5">
        <g id="Menu" transform="translate(-61.000000, -525.000000)" fill="#1D1D1B">
            <g id="Components-/-Navigation-/-x-/-Element-Copy-9" transform="translate(30.000000, 504.000000)">
                <g id="Icons-/-Navigation-/-Home" transform="translate(31.746032, 19.500000)">
                    <path d="M27.1875,2.1875 L2.8125,2.1875 C1.26005563,2.1895658 0.00206579698,3.44755563 0,5 L0,18.75 C0.00206579698,20.3024444 1.26005563,21.5604342 2.8125,21.5625 L12.8125,21.5625 C13.157678,21.5625 13.4375,21.842322 13.4375,22.1875 L13.4375,24.0625 C13.4375,24.407678 13.157678,24.6875 12.8125,24.6875 L9.0625,24.6875 C8.19955508,24.6875 7.5,25.3870551 7.5,26.25 C7.5,27.1129449 8.19955508,27.8125 9.0625,27.8125 L20.9375,27.8125 C21.8004449,27.8125 22.5,27.1129449 22.5,26.25 C22.5,25.3870551 21.8004449,24.6875 20.9375,24.6875 L17.1875,24.6875 C16.842322,24.6875 16.5625,24.407678 16.5625,24.0625 L16.5625,22.1875 C16.5625,21.842322 16.842322,21.5625 17.1875,21.5625 L27.1875,21.5625 C28.7399444,21.5604342 29.9979342,20.3024444 30,18.75 L30,5 C29.9979342,3.44755563 28.7399444,2.1895658 27.1875,2.1875 Z M26.875,17.8125 C26.875,18.157678 26.595178,18.4375 26.25,18.4375 L3.75,18.4375 C3.40482203,18.4375 3.125,18.157678 3.125,17.8125 L3.125,5.9375 C3.125,5.59232203 3.40482203,5.3125 3.75,5.3125 L26.25,5.3125 C26.595178,5.3125 26.875,5.59232203 26.875,5.9375 L26.875,17.8125 Z" id="TV-Guide"></path>
                </g>
            </g>
        </g>
    </g>
</svg>